<?xml version="1.0" standalone="no"?>
<!DOCTYPE svg PUBLIC "-//W3C//DTD SVG 20010904//EN"
 "http://www.w3.org/TR/2001/REC-SVG-20010904/DTD/svg10.dtd">
<svg version="1.0" xmlns="http://www.w3.org/2000/svg"
 width="512.000000pt" height="512.000000pt" viewBox="0 0 512.000000 512.000000"
 preserveAspectRatio="xMidYMid meet">

<g transform="translate(0.000000,512.000000) scale(0.100000,-0.100000)"
fill="#000000" stroke="none">
<path d="M2560 4474 c-98 -12 -256 -47 -341 -75 -395 -130 -747 -433 -925
-798 l-39 -78 -98 -16 c-182 -31 -309 -97 -442 -231 -128 -130 -187 -241 -221
-414 -23 -120 -12 -278 25 -375 10 -26 8 -29 -20 -45 -66 -36 -186 -131 -243
-193 -109 -118 -184 -254 -228 -418 -30 -110 -30 -353 0 -462 83 -305 294
-547 573 -658 178 -71 38 -66 1809 -66 1775 0 1646 -5 1850 67 192 68 325 152
476 303 193 191 303 393 360 655 26 119 26 381 0 500 -23 106 -67 233 -114
325 -122 243 -364 477 -606 586 l-74 33 -17 86 c-64 327 -256 658 -512 883
-211 185 -494 322 -768 372 -87 16 -373 28 -445 19z m430 -343 c245 -56 446
-167 620 -341 224 -224 369 -530 395 -828 l7 -79 56 -18 c159 -50 332 -155
453 -275 126 -124 205 -261 250 -430 30 -111 33 -347 6 -454 -46 -182 -125
-323 -257 -456 -137 -138 -277 -219 -466 -267 -64 -17 -172 -18 -1639 -18
l-1570 0 -70 22 c-269 85 -455 338 -455 618 0 272 154 475 480 634 55 27 104
51 110 53 7 2 -9 64 -44 168 -31 91 -59 193 -62 227 -14 128 37 270 128 361
102 102 285 166 462 161 l70 -2 37 91 c187 460 564 774 1014 847 121 20 359
13 475 -14z"/>
</g>
</svg>
